# xmcd
# Copyright (C) 1995-1998 Ti Kan
#
# Track frame offsets:
#       150
#       17730
#       32385
#       48258
#       64201
#       77286
#       90419
#       102936
#       117152
#       129560
#       144625
#       158907
#       174042
#       187737
#
# Disc length: 2780 seconds
#
# Revision: 0
# Processed by: cddbd v1.5.2PL0 Copyright (c) Steve Scherf et al.
# Submitted via: CD-Transfer v1.0
#
DISCID=9e0ada0e
DTITLE=Vreni Margreiter - 
DYEAR=1900
DGENRE=
TTITLE0=Das Ave Maria Der Liebe
TTITLE1=Serenta Per La Fortuna
TTITLE2=Heut Hab Ich Glück
TTITLE3=Ich Schenk Dir Eine Melodie
TTITLE4=Komm Lach Mal Wieder
TTITLE5=Lieber Küssen Als Erfrieren
TTITLE6=Buon Giorno
TTITLE7=Der Schönste Walzer
TTITLE8=Schenk Mir Ein Bisschen Zeit
TTITLE9=Eine Hand Voll Träume
TTITLE10=Ja Ich Möchte Mehr Davon
TTITLE11=Die Jahreszeiten Der Liebe
TTITLE12=So Wie Ein Stern
TTITLE13=Vreni Und Rudi Hitmix
EXTD=
EXTT0=
EXTT1=
EXTT2=
EXTT3=
EXTT4=
EXTT5=
EXTT6=
EXTT7=
EXTT8=
EXTT9=
EXTT10=
EXTT11=
EXTT12=
EXTT13=
PLAYORDER=
